#
# Comment line
##
 #
:version 1.10
:name BioSkeleton
:units
   mass 1.0
   length 1.0
   angle deg
:documentation
   Example of an Acclaim skeleton
   To be used with "Walk.amc"
:root
   axis XYZ
   order TX TY TZ RZ RY RX
   position 0.0 0.0 0.0
   orientation 0.0 0.0 0.0
:bonedata
begin
   id 1
   name hips
   direction 0.000000 1.000000 0.000000
   length 0.000000
   axis 0.00000 0.00000 0.00000 XYZ
   dof rx ry rz
   limits (-180.0 180.0)
      (-180.0 180.0)
      (-180.0 180.0)
end
begin
   id 2
   name hips1
   direction 0.000000 1.000000 0.000000
   length  4.310000
   axis 0.000 0.000 0.000 XYZ
end
begin
   id 3
   name chest
   direction 0.000000 1.000000 0.000000
   length 0.000000
   axis 0.00000 0.00000 0.00000 XYZ
   dof rx ry rz
   limits (-180.0 180.0)
      (-180.0 180.0)
      (-180.0 180.0)
end
begin
   id 4
   name chest1
   direction 0.000000 1.000000 0.000000
   length  16.870001
   axis 0.000 0.000 0.000 XYZ
end
begin
   id 5
   name neck
   direction 0.000000 1.000000 0.000000
   length 4.020000
   axis 0.00000 0.00000 0.00000 XYZ
   dof rx ry rz
   limits (-180.0 180.0)
      (-180.0 180.0)
      (-180.0 180.0)
end
begin
   id 6
   name head
   direction 1.000000 0.000000 0.000000
   length 0.000000
   axis 0.00000 0.00000 0.00000 XYZ
   dof rx ry rz
   limits (-180.0 180.0)
      (-180.0 180.0)
      (-180.0 180.0)
end
begin
   id 7
   name chest2
   direction 0.068191 0.991126 0.114101
   length  14.811435
   axis 0.000 0.000 0.000 XYZ
end
begin
   id 8
   name leftcollar
   direction 1.000000 0.000000 0.000000
   length 4.830000
   axis 0.00000 0.00000 0.00000 XYZ
   dof rx ry rz
   limits (-180.0 180.0)
      (-180.0 180.0)
      (-180.0 180.0)
end
begin
   id 9
   name leftuparm
   direction 0.000000 -1.000000 0.000000
   length 12.160000
   axis 0.00000 0.00000 0.00000 XYZ
   dof rx ry rz
   limits (-180.0 180.0)
      (-180.0 180.0)
      (-180.0 180.0)
end
begin
   id 10
   name leftlowarm
   direction 0.000000 -1.000000 0.000000
   length 9.700000
   axis 0.00000 0.00000 0.00000 XYZ
   dof rx ry rz
   limits (-180.0 180.0)
      (-180.0 180.0)
      (-180.0 180.0)
end
begin
   id 11
   name lefthand
   direction 1.000000 0.000000 0.000000
   length 0.000000
   axis 0.00000 0.00000 0.00000 XYZ
   dof rx ry rz
   limits (-180.0 180.0)
      (-180.0 180.0)
      (-180.0 180.0)
end
begin
   id 12
   name chest3
   direction -0.068191 0.991126 0.114101
   length  14.811435
   axis 0.000 0.000 0.000 XYZ
end
begin
   id 13
   name rightcollar
   direction -1.000000 0.000000 0.000000
   length 5.390000
   axis 0.00000 0.00000 0.00000 XYZ
   dof rx ry rz
   limits (-180.0 180.0)
      (-180.0 180.0)
      (-180.0 180.0)
end
begin
   id 14
   name rightuparm
   direction 0.000000 -1.000000 0.000000
   length 12.480000
   axis 0.00000 0.00000 0.00000 XYZ
   dof rx ry rz
   limits (-180.0 180.0)
      (-180.0 180.0)
      (-180.0 180.0)
end
begin
   id 15
   name rightlowarm
   direction 0.000000 -1.000000 0.000000
   length 10.060000
   axis 0.00000 0.00000 0.00000 XYZ
   dof rx ry rz
   limits (-180.0 180.0)
      (-180.0 180.0)
      (-180.0 180.0)
end
begin
   id 16
   name righthand
   direction 1.000000 0.000000 0.000000
   length 0.000000
   axis 0.00000 0.00000 0.00000 XYZ
   dof rx ry rz
   limits (-180.0 180.0)
      (-180.0 180.0)
      (-180.0 180.0)
end
begin
   id 17
   name hips2
   direction 1.000000 0.000000 0.000000
   length  3.240000
   axis 0.000 0.000 0.000 XYZ
end
begin
   id 18
   name leftupleg
   direction 0.000000 -1.000000 0.000000
   length 17.290001
   axis 0.00000 0.00000 0.00000 XYZ
   dof rx ry rz
   limits (-180.0 180.0)
      (-180.0 180.0)
      (-180.0 180.0)
end
begin
   id 19
   name leftlowleg
   direction 0.000000 -1.000000 0.000000
   length 16.400000
   axis 0.00000 0.00000 0.00000 XYZ
   dof rx ry rz
   limits (-180.0 180.0)
      (-180.0 180.0)
      (-180.0 180.0)
end
begin
   id 20
   name leftfoot
   direction 1.000000 0.000000 0.000000
   length 0.000000
   axis 0.00000 0.00000 0.00000 XYZ
   dof rx ry rz
   limits (-180.0 180.0)
      (-180.0 180.0)
      (-180.0 180.0)
end
begin
   id 21
   name hips3
   direction -1.000000 0.000000 0.000000
   length  3.240000
   axis 0.000 0.000 0.000 XYZ
end
begin
   id 22
   name rightupleg
   direction 0.000000 -1.000000 0.000000
   length 17.680000
   axis 0.00000 0.00000 0.00000 XYZ
   dof rx ry rz
   limits (-180.0 180.0)
      (-180.0 180.0)
      (-180.0 180.0)
end
begin
   id 23
   name rightlowleg
   direction 0.000000 -1.000000 0.000000
   length 15.510000
   axis 0.00000 0.00000 0.00000 XYZ
   dof rx ry rz
   limits (-180.0 180.0)
      (-180.0 180.0)
      (-180.0 180.0)
end
begin
   id 24
   name rightfoot
   direction 1.000000 0.000000 0.000000
   length 0.000000
   axis 0.00000 0.00000 0.00000 XYZ
   dof rx ry rz
   limits (-180.0 180.0)
      (-180.0 180.0)
      (-180.0 180.0)
end
:hierarchy
begin
   root hips
   hips hips1 hips2 hips3
   hips1 chest
   chest chest1 chest2 chest3
   chest1 neck
   neck head
   chest2 leftcollar
   leftcollar leftuparm
   leftuparm leftlowarm
   leftlowarm lefthand
   chest3 rightcollar
   rightcollar rightuparm
   rightuparm rightlowarm
   rightlowarm righthand
   hips2 leftupleg
   leftupleg leftlowleg
   leftlowleg leftfoot
   hips3 rightupleg
   rightupleg rightlowleg
   rightlowleg rightfoot
end

:FULLY-SPECIFIED
:DEGREES
39
root 0.879642 37.332748 70.744171 -1.563741 -4.575170 -21.401918
hips 0.000000 0.000000 0.000000
chest 18.158768 1.024237 -0.994665
neck 45.469559 0.000000 1.831556
head -32.321205 0.004869 -4.678057
leftcollar 0.000000 6.692412 -5.317855
leftuparm -3.508742 -54.588360 35.668163
leftlowarm -39.823708 -1.403534 1.170085
lefthand 8.282726 -0.227362 4.008368
rightcollar 0.000000 -3.867390 7.151930
rightuparm 11.343630 35.919205 -23.457600
rightlowarm -40.925522 4.468116 -3.864094
righthand -3.475730 -0.363528 1.697301
leftupleg 16.554935 0.139309 -0.468471
leftlowleg 16.641516 8.762126 0.118370
leftfoot -11.417454 3.351776 -6.926059
rightupleg 12.091696 0.792553 -3.694470
rightlowleg 51.209167 -11.788254 -11.478683
rightfoot 2.086824 -0.937856 8.977852
40
root 0.861036 37.531757 73.030106 -1.303062 -1.751880 -22.397499
hips 0.000000 0.000000 0.000000
chest 19.191467 -2.135047 -1.705646
neck 45.872009 0.000000 3.300982
head -32.619488 -0.255055 -5.497078
leftcollar 0.000000 6.524149 -3.902684
leftuparm -9.700514 -51.220821 38.670437
leftlowarm -40.904800 -4.320199 3.734066
lefthand 7.369431 -0.097093 3.854352
rightcollar 0.000000 -4.297355 8.132943
rightuparm 16.426279 37.205410 -20.596258
rightlowarm -39.672909 3.337490 -2.764460
righthand -3.392011 -0.369998 1.787366
leftupleg 26.102242 -0.061002 0.124401
leftlowleg 6.782296 5.973211 -1.035681
leftfoot -9.431259 3.590526 -6.805786
rightupleg 9.558329 0.438258 -2.600848
rightlowleg 45.919773 -16.007526 -11.203409
rightfoot -0.302544 -0.559675 9.009056
41
root 0.822865 37.567657 75.298431 -0.882911 0.712932 -23.336906
hips 0.000000 0.000000 0.000000
chest 20.267607 -4.703907 -2.511002
neck 46.160450 0.000000 4.877812
head -32.856361 -0.707114 -6.269351
leftcollar 0.000000 6.316770 -2.419764
leftuparm -14.655953 -47.402573 40.430801
leftlowarm -42.724884 -6.594606 6.054556
lefthand 5.960898 0.025598 4.036865
rightcollar 0.000000 -4.649119 9.175268
rightuparm 21.528162 38.136971 -17.834888
rightlowarm -38.596935 2.720419 -2.169590
righthand -3.143506 -0.386663 1.896090
leftupleg 35.067661 -0.684249 0.974609
leftlowleg -2.116806 3.776158 -1.967220
leftfoot -7.966699 3.763752 -6.711843
rightupleg 7.484017 0.251727 -1.915377
rightlowleg 38.286022 -19.404713 -9.732386
rightfoot -2.416565 -0.224185 9.023509
42
root 0.767406 37.422031 77.542503 -0.171500 2.670539 -23.965914
hips 0.000000 0.000000 0.000000
chest 21.059469 -6.488093 -3.473362
neck 46.493443 0.000000 6.470703
head -33.255173 -1.369376 -6.883391
leftcollar 0.000000 6.053229 -1.070246
leftuparm -18.794424 -43.674706 41.657139
leftlowarm -45.215214 -8.184653 8.162678
lefthand 4.277215 0.142715 4.326815
rightcollar 0.000000 -5.085031 10.293780
rightuparm 26.292723 38.507408 -15.388254
rightlowarm -37.574131 2.745612 -2.110668
righthand -2.716156 -0.484871 2.356478
leftupleg 41.924980 -1.449570 1.613507
leftlowleg -7.672553 2.237403 -2.587016
leftfoot -7.860978 3.776152 -6.704885
rightupleg 5.608968 0.172914 -1.759953
rightlowleg 28.895754 -21.319212 -7.325119
rightfoot -4.288664 0.073168 9.025992
43
root 0.699371 37.154217 79.767776 1.340871 3.945788 -24.435314
hips 0.000000 0.000000 0.000000
chest 21.699646 -7.346766 -5.222220
neck 46.721184 0.000000 8.098729
head -33.542694 -2.105315 -7.325062
leftcollar 0.000000 5.688843 0.193307
leftuparm -22.011999 -39.907784 42.244057
leftlowarm -48.210632 -9.511496 10.474905
lefthand 2.648185 0.250659 4.437531
rightcollar 0.000000 -5.393430 11.549361
rightuparm 30.542103 38.239212 -13.304959
rightlowarm -36.462421 3.132972 -2.312689
righthand -2.332239 -0.619801 2.929057
leftupleg 46.472664 -1.681973 1.596994
leftlowleg -9.035396 1.015679 -2.909206
leftfoot -9.275970 3.609004 -6.796023
rightupleg 4.061753 0.187267 -2.635201
rightlowleg 18.818256 -21.227537 -4.497675
rightfoot -5.975799 0.341108 9.019913
44
root 0.634766 36.708801 82.013779 2.745040 5.261731 -24.432373
hips 0.000000 0.000000 0.000000
chest 21.760836 -8.205886 -6.590653
neck 47.023037 0.000000 9.420326
head -33.898708 -2.840564 -7.617996
leftcollar 0.000000 5.328325 1.067078
leftuparm -24.336727 -36.644436 42.449135
leftlowarm -51.464130 -10.246531 12.590021
lefthand 1.162904 0.346591 4.537711
rightcollar 0.000000 -5.621302 12.489881
rightuparm 34.286083 37.718456 -11.389832
rightlowarm -35.314224 3.323986 -2.352109
righthand -1.959135 -0.774897 3.555516
leftupleg 49.724026 -2.095350 1.774475
leftlowleg -8.759811 -0.039781 -3.156317
leftfoot -10.811895 3.425016 -6.890258
rightupleg 2.617551 0.165899 -3.624307
rightlowleg 9.465633 -20.370129 -1.979035
rightfoot -7.296900 0.550675 9.009627
45
root 0.583054 36.163166 84.312897 3.790705 7.071392 -24.168140
hips 0.000000 0.000000 0.000000
chest 21.468138 -9.676900 -7.318024
neck 47.374313 0.000000 10.255458
head -34.354561 -3.497488 -7.812736
leftcollar 0.000000 5.042428 1.306195
leftuparm -25.499832 -33.825085 42.156330
leftlowarm -54.566509 -10.533926 14.409403
lefthand -0.303206 0.423288 4.589669
rightcollar 0.000000 -5.816370 13.019125
rightuparm 37.265102 37.196724 -9.786329
rightlowarm -34.124702 3.381199 -2.288823
righthand -1.643882 -0.932510 4.177989
leftupleg 51.815262 -3.074582 2.415518
leftlowleg -6.837428 -1.094037 -3.306898
leftfoot -12.011607 3.279531 -6.960403
rightupleg 1.399884 0.108989 -4.451477
rightlowleg 2.520792 -20.237009 -0.199471
rightfoot -7.892707 0.645116 9.003389
46
root 0.519825 35.664711 86.664337 4.527717 9.428370 -23.991343
hips 0.000000 0.000000 0.000000
chest 21.221703 -11.797044 -7.623393
neck 47.438663 0.000000 10.776237
head -34.550148 -4.022362 -7.971765
leftcollar 0.000067 4.826631 1.247404
leftuparm -25.531433 -31.845221 41.533203
leftlowarm -57.252232 -10.335585 15.586602
lefthand -1.310501 0.478293 4.797176
rightcollar 0.000000 -5.935963 13.268432
rightuparm 39.318146 36.906765 -8.564445
rightlowarm -33.009140 3.121252 -2.025825
righthand -1.351874 -1.086622 4.784173
leftupleg 52.683117 -4.687564 3.564550
leftlowleg -3.038983 -2.344361 -3.400959
leftfoot -12.094821 3.269396 -6.965147
rightupleg 0.581708 0.050567 -4.969294
rightlowleg -0.911144 -21.715519 0.630478
rightfoot -7.221514 0.538694 9.010333
47
root 0.421986 35.332432 89.038788 5.118598 12.002867 -23.968616
hips 0.000000 0.000000 0.000000
chest 21.157387 -14.310490 -7.855309
neck 47.292027 0.000000 11.046979
head -34.552528 -4.276429 -8.161658
leftcollar 0.000000 4.780293 1.015608
leftuparm -24.517830 -30.718143 40.619545
leftlowarm -59.103554 -10.108496 16.346498
lefthand -1.956531 0.505299 5.046725
rightcollar 0.000000 -5.828378 13.496569
rightuparm 40.177307 36.691532 -8.101272
rightlowarm -32.094978 2.914949 -1.826780
righthand -1.138233 -1.216544 5.301326
leftupleg 51.900639 -6.470425 5.049461
leftlowleg 2.970082 -3.802878 -3.441716
leftfoot -11.773736 3.488841 -6.949316
rightupleg 0.063080 0.005698 -5.176057
rightlowleg -0.568885 -24.263483 0.364423
rightfoot -5.041579 0.192714 9.024277
48
root 0.275383 35.234695 91.383499 5.809432 14.179984 -23.957541
hips 0.000000 0.000000 0.000000
chest 21.148003 -16.483971 -8.372034
neck 46.872833 0.000000 11.196514
head -34.183491 -4.257056 -8.284944
leftcollar 0.000000 4.707261 0.793621
leftuparm -22.522715 -30.484390 39.555756
leftlowarm -59.914692 -10.056890 16.774048
lefthand -1.986787 0.505926 5.251625
rightcollar 0.000000 -5.521563 13.791495
rightuparm 39.729847 36.642540 -8.368482
rightlowarm -31.442123 2.483739 -1.517758
righthand -0.937950 -1.259670 5.425379
leftupleg 49.026043 -7.548025 6.508279
leftlowleg 11.225204 -5.286524 -3.475202
leftfoot -11.719382 3.976284 -6.978989
rightupleg -0.321482 -0.029518 -5.245163
rightlowleg 2.939399 -26.414757 -0.969499
rightfoot -2.038141 -0.284335 9.021873
49
root 0.115364 35.294792 93.687126 6.018822 15.486576 -23.725382
hips 0.000000 0.000000 0.000000
chest 20.860023 -17.863413 -8.387378
neck 46.389561 0.000000 11.292482
head -33.682583 -4.186901 -8.348812
leftcollar 0.000000 4.846306 0.458167
leftuparm -19.883438 -31.159801 38.201168
leftlowarm -59.424755 -10.483983 17.117907
lefthand -1.409004 0.441754 4.944033
rightcollar 0.000000 -5.153961 13.944326
rightuparm 38.100361 36.804665 -9.388067
rightlowarm -31.258614 1.801421 -1.093187
righthand -0.809444 -1.207996 5.179235
leftupleg 44.396809 -7.672099 7.764112
leftlowleg 20.773840 -5.754025 -3.340805
leftfoot -11.867820 4.622745 -7.096488
rightupleg -0.572982 -0.048160 -4.802490
rightlowleg 8.071201 -27.142612 -2.551025
rightfoot 0.236325 -0.645109 9.003378
50
root -0.016148 35.458313 95.930885 5.615285 15.807558 -23.235292
hips 0.000000 0.000000 0.000000
chest 20.099888 -18.138443 -7.537110
neck 46.198250 0.000000 11.184243
head -33.251953 -4.286461 -8.167323
leftcollar 0.000000 4.950603 -0.109809
leftuparm -16.833321 -32.798023 36.709854
leftlowarm -57.531605 -11.188271 16.958706
lefthand -0.357696 0.356992 4.509696
rightcollar 0.000000 -4.953659 13.632422
rightuparm 35.375572 36.953220 -10.993479
rightlowarm -31.580803 1.037458 -0.637708
righthand -0.822973 -1.031567 4.432713
leftupleg 38.491459 -6.881912 8.569132
leftlowleg 30.508253 -4.703010 -2.467684
leftfoot -12.151818 5.172772 -7.270366
rightupleg -0.308798 -0.020342 -3.764854
rightlowleg 12.842609 -26.672510 -3.658811
rightfoot 0.721084 -0.721865 8.997631
51
root -0.115204 35.693996 98.100899 4.745605 15.248111 -22.557865
hips 0.000000 0.000000 0.000000
chest 18.972359 -17.360163 -6.049870
neck 46.340054 0.000000 10.852787
head -32.897823 -4.560632 -7.700379
leftcollar 0.000000 5.252965 -0.843780
leftuparm -13.704788 -35.258541 35.116127
leftlowarm -54.399605 -11.982780 16.171797
lefthand 1.138330 0.242850 3.767571
rightcollar 0.000000 -4.972678 12.986476
rightuparm 31.853870 37.343445 -13.012712
rightlowarm -32.521362 0.063193 -0.040291
righthand -0.930539 -0.736898 3.225930
leftupleg 31.890301 -5.528919 8.802236
leftlowleg 39.133179 -2.765833 -0.652539
leftfoot -12.502774 5.426620 -7.392485
rightupleg 0.834149 0.032778 -2.249743
rightlowleg 15.805906 -25.502066 -4.093553
rightfoot -0.248808 -0.568237 9.008568
52
root -0.194359 36.014702 100.185471 3.754741 13.752826 -21.830713
hips 0.000000 0.000000 0.000000
chest 17.700586 -15.446099 -4.437384
neck 46.699276 0.000000 10.354839
head -32.427132 -4.905039 -7.181037
leftcollar 0.000000 5.723017 -1.654012
leftuparm -10.499318 -38.416309 33.642696
leftlowarm -50.527618 -12.277239 14.478060
lefthand 2.690738 0.129646 2.959551
rightcollar 0.000000 -5.120136 12.168926
rightuparm 27.728230 37.696815 -15.427275
rightlowarm -34.024876 -0.654539 0.441888
righthand -1.295990 -0.428444 1.925977
leftupleg 25.226980 -3.983087 8.386937
leftlowleg 45.532707 -0.582302 1.342584
leftfoot -12.855358 5.381130 -7.411673
rightupleg 2.907162 0.032840 -0.646859
rightlowleg 16.643568 -23.680977 -3.958483
rightfoot -1.728465 -0.333472 9.020191
